# xmcd
#
# Track frame offsets:
#   150
#   15492
#   26562
#   39324
#   58044
#   76542
#   90993
#   106809
#   116880
#   133776
#   147555
#   159375
#   177756
#   198549
#
# Disc length: 2871 seconds
#
# Revision: 0
# Processed by: cddbd v1.5.1PL0 Copyright (c) Steve Scherf et al.
# Submitted via: uFREEDB ActiveX Control 1.5
#
DISCID=ad0b350e
DTITLE=Marcos Paulo and Daniel - Marcos Paulo and Daniel
DYEAR=1900
DGENRE=Country
TTITLE0=Não me Abandone
TTITLE1=Amor Maluco
TTITLE2=Peão de Rodeio
TTITLE3=Chega Mais
TTITLE4=Pra Curar Minha Dor
TTITLE5=Olhos Cor de Mel
TTITLE6=Fui
TTITLE7=Mexe Remexe
TTITLE8=Preso na Solidão
TTITLE9=Dança Menina
TTITLE10=Do Jeitinho que a Gente Quer
TTITLE11=Pra Salvar Minha Vida
TTITLE12=Olhos Cor de Mel
TTITLE13=Gostoso
EXTD=
EXTT0=
EXTT1=
EXTT2=
EXTT3=
EXTT4=
EXTT5=
EXTT6=
EXTT7=
EXTT8=
EXTT9=
EXTT10=
EXTT11=
EXTT12=
EXTT13=
PLAYORDER=
